<?xml version="1.0" encoding="utf-8"?><svg xmlns="http://www.w3.org/2000/svg" xmlns:xlink="http://www.w3.org/1999/xlink"><symbol viewBox="-1 -1 18 18" fill-rule="evenodd" clip-rule="evenodd" stroke-linejoin="round" stroke-miterlimit="1.414" id="icon500px"><path d="M14.008 13.3c-.113-.114-.21-.18-.294-.204a.21.21 0 0 0-.22.053l-.056.054a6.34 6.34 0 0 1-2.012 1.357c-.78.33-1.61.498-2.464.498a6.297 6.297 0 0 1-4.477-1.853 6.07 6.07 0 0 1-1.357-2.012 6.8 6.8 0 0 1-.41-1.422l-.008-.04c-.04-.206-.23-.22-.504-.18-.114.02-.46.072-.428.32v.007a7.235 7.235 0 0 0 2.043 3.992A7.234 7.234 0 0 0 8.963 16c.98 0 1.933-.192 2.83-.572a7.216 7.216 0 0 0 2.312-1.56s.038-.036.058-.058c.073-.08.137-.22-.154-.51M8.952 1.713c-.938 0-1.936.19-2.67.507a.21.21 0 0 0-.134.183c-.01.083.013.193.07.337.044.116.165.424.4.335a6.73 6.73 0 0 1 2.334-.444c.857 0 1.688.17 2.47.5.62.262 1.207.642 1.844 1.194.046.04.096.06.146.06.125 0 .244-.12.346-.236.17-.19.287-.35.12-.508a6.824 6.824 0 0 0-2.1-1.355 7.19 7.19 0 0 0-2.826-.57m-1.278 7.93c0 .107.098.2.156.256l.018.018c.1.098.194.148.28.148a.193.193 0 0 0 .134-.05c.044-.04.54-.542.586-.59l.552.55c.052.06.107.087.172.09.088 0 .184-.053.286-.157.238-.244.12-.375.06-.44l-.56-.558.585-.588c.128-.14.015-.286-.098-.4-.163-.162-.32-.205-.423-.11l-.58.58-.587-.587a.157.157 0 0 0-.113-.045c-.078 0-.17.052-.275.157-.18.18-.22.304-.125.403l.587.586-.585.583c-.048.048-.072.1-.07.153m-3.723.867c.004.01.087.24.135.352.263.624.64 1.184 1.122 1.665a5.227 5.227 0 0 0 5.741 1.122 5.214 5.214 0 0 0 1.665-1.122 5.2 5.2 0 0 0 1.533-3.705 5.198 5.198 0 0 0-1.533-3.702A5.22 5.22 0 0 0 8.912 3.59c-.715 0-1.43.14-2.067.41-.51.216-1.37.77-1.875 1.29l-.003.004V.984h7.24c.264-.003.264-.37.264-.492 0-.12 0-.49-.263-.492h-7.83a.344.344 0 0 0-.344.342v6.066c0 .196.244.337.47.386.443.094.545-.047.653-.197l.015-.02c.166-.245.683-.765.688-.77a4.256 4.256 0 0 1 3.035-1.253c1.146 0 2.222.445 3.03 1.25a4.253 4.253 0 0 1 1.254 3.02 4.24 4.24 0 0 1-1.25 3.02 4.331 4.331 0 0 1-3.047 1.252c-.773 0-1.52-.206-2.16-.596l.004-3.688c0-.49.214-1.026.57-1.43.41-.462.973-.716 1.587-.716.595 0 1.15.226 1.565.636.41.407.636.95.636 1.527a2.18 2.18 0 0 1-2.207 2.198c-.24 0-.673-.106-.69-.11-.25-.075-.357.272-.392.387-.135.44.068.527.11.54.398.123.66.147 1 .147a3.174 3.174 0 0 0 3.17-3.17c0-1.734-1.42-3.144-3.167-3.144-.854 0-1.657.327-2.26.92-.575.565-.905 1.32-.905 2.067v.02c-.003.092-.004 2.304-.005 3.03l-.003-.004c-.33-.363-.653-.92-.868-1.488-.086-.223-.276-.183-.536-.103-.114.034-.46.14-.383.39l.002.003z" fill-rule="nonzero"/></symbol><symbol viewBox="-1 -1 18 18" fill-rule="evenodd" clip-rule="evenodd" stroke-linejoin="round" stroke-miterlimit="1.414" id="iconaboutme"><path d="M13.024 6.096c-.916 0-1.422.675-1.53 1.41h3.072c-.084-.7-.578-1.41-1.542-1.41m-1.506 2.41c.157.77.795 1.313 1.687 1.313.482 0 1.18-.18 1.59-.603l.783.904c-.71.748-1.77.952-2.493.952-1.76 0-3.133-1.265-3.133-3.072 0-1.687 1.264-3.072 3.048-3.072 1.722 0 3 1.325 3 3.072v.506h-4.482zm-4.326 2.552V7.265c0-.65-.288-1.024-.89-1.024-.543 0-.904.386-1.145.664v4.154H3.59V7.265c0-.65-.276-1.024-.878-1.024-.542 0-.917.386-1.145.664v4.154H0V5.004h1.567v.767a2.37 2.37 0 0 1 1.807-.842c.83 0 1.397.35 1.65 1.06.35-.506 1-1.06 1.94-1.06 1.133 0 1.795.675 1.795 1.976v4.154H7.19z" fill-rule="nonzero"/></symbol><symbol viewBox="-1 -1 18 18" fill-rule="evenodd" clip-rule="evenodd" stroke-linejoin="round" stroke-miterlimit="1.414" id="iconair"><path d="M8 0a8 8 0 1 0 0 16A8 8 0 0 0 8 0zm3.305 11.1h-6.61c-.623 0-.875-.437-.563-.976l3.304-5.722c.312-.54.816-.54 1.126 0l3.305 5.722c.31.54.06.975-.562.975z" fill-rule="nonzero"/></symbol><symbol viewBox="-1 -1 18 18" fill-rule="evenodd" clip-rule="evenodd" stroke-linejoin="round" stroke-miterlimit="1.414" id="iconairbnb"><path d="M15.222 11.355a9.478 9.478 0 0 0-.235-.577c-.123-.277-.252-.556-.376-.825l-.008-.02a183.837 183.837 0 0 0-3.533-7.24l-.054-.1c-.126-.246-.256-.5-.39-.75a4.98 4.98 0 0 0-.574-.885A2.666 2.666 0 0 0 8 0a2.66 2.66 0 0 0-2.052.96 4.815 4.815 0 0 0-.574.884c-.135.252-.267.508-.394.755l-.05.094A188.702 188.702 0 0 0 1.4 9.932l-.018.035c-.12.265-.248.538-.368.81-.08.182-.163.376-.235.578a3.524 3.524 0 0 0-.19 1.725 3.41 3.41 0 0 0 3.812 2.895 4.293 4.293 0 0 0 1.61-.543c.648-.365 1.288-.9 1.988-1.665.7.765 1.34 1.3 1.99 1.665.53.298 1.07.48 1.607.543a3.505 3.505 0 0 0 1.728-.228 3.41 3.41 0 0 0 2.087-2.667c.08-.57.02-1.134-.19-1.725zm-.822 1.58a2.38 2.38 0 0 1-1.46 1.864c-.38.155-.8.21-1.225.16a3.212 3.212 0 0 1-1.225-.42c-.577-.323-1.162-.822-1.82-1.554 1.048-1.294 1.702-2.485 1.944-3.548.11-.485.134-.944.07-1.364a2.621 2.621 0 0 0-.426-1.094C9.768 6.265 8.925 5.84 8 5.84c-.924 0-1.768.425-2.258 1.14-.22.32-.363.688-.425 1.093-.064.42-.04.88.07 1.364.24 1.063.895 2.255 1.942 3.55-.66.73-1.243 1.23-1.82 1.554a3.212 3.212 0 0 1-1.225.42 2.48 2.48 0 0 1-1.226-.16 2.382 2.382 0 0 1-1.46-1.865c-.058-.408-.013-.8.142-1.238.057-.16.124-.318.207-.506.116-.264.24-.534.36-.795l.017-.035c1.1-2.39 2.283-4.81 3.513-7.198l.05-.095c.124-.244.253-.496.384-.74.136-.25.273-.494.45-.705.337-.392.778-.6 1.276-.6.5 0 .94.208 1.274.6.18.21.316.454.45.706.13.24.26.49.384.73l.052.104a183.78 183.78 0 0 1 3.513 7.198l.01.022c.122.265.25.54.368.81.084.187.15.345.208.505.155.437.2.83.142 1.238zM8 12.19c-.866-1.102-1.422-2.123-1.617-2.98a2.65 2.65 0 0 1-.056-.98c.04-.254.126-.48.258-.673.3-.435.828-.696 1.415-.696.587 0 1.116.262 1.415.697.133.193.22.42.258.672.045.29.026.622-.056.98-.195.858-.75 1.88-1.617 2.98z"/></symbol><symbol viewBox="-1 -1 18 18" fill-rule="evenodd" clip-rule="evenodd" stroke-linejoin="round" stroke-miterlimit="1.414" id="iconamazon"><path d="M.03 12.015c.048-.078.125-.083.232-.015 2.424 1.406 5.062 2.11 7.913 2.11 1.9 0 3.777-.355 5.63-1.063l.21-.087c.092-.04.157-.068.196-.087.146-.058.26-.03.343.087.082.116.055.223-.08.32-.175.126-.398.272-.67.436-.833.495-1.764.878-2.792 1.15-1.027.27-2.03.407-3.01.407a11.65 11.65 0 0 1-4.29-.793 11.792 11.792 0 0 1-3.623-2.233C.03 12.2 0 12.15 0 12.102c0-.03.01-.058.03-.087zM4.406 7.87c0-.67.165-1.242.495-1.717.33-.475.78-.834 1.353-1.077.523-.223 1.168-.383 1.934-.48.26-.03.688-.068 1.28-.116v-.247c0-.62-.07-1.038-.205-1.25-.203-.292-.523-.438-.96-.438H8.19c-.32.03-.597.13-.83.306a1.19 1.19 0 0 0-.45.728c-.04.194-.137.306-.292.335L4.945 3.71c-.164-.04-.247-.127-.247-.263 0-.03.005-.063.015-.102.165-.863.57-1.503 1.214-1.92.645-.417 1.4-.65 2.262-.698h.363c1.105 0 1.968.286 2.59.858.096.097.185.202.268.313.083.112.15.21.197.298.05.088.092.214.13.38.04.163.07.277.088.34.02.063.034.2.044.408.01.208.014.332.014.37v3.52c0 .253.036.483.11.69.07.21.142.36.21.452l.334.444a.436.436 0 0 1 .087.233c0 .077-.038.145-.116.203-.806.7-1.242 1.077-1.31 1.135-.116.088-.257.098-.422.03a4.75 4.75 0 0 1-.356-.335 9.911 9.911 0 0 1-.218-.232 3.22 3.22 0 0 1-.21-.284 6.058 6.058 0 0 0-.205-.285c-.544.592-1.077.96-1.6 1.106-.33.098-.738.146-1.223.146-.746 0-1.36-.23-1.84-.69-.48-.46-.72-1.113-.72-1.957zm2.502-.292c0 .378.094.68.283.91.19.227.443.34.763.34.03 0 .07-.004.124-.013a.715.715 0 0 1 .11-.015c.406-.107.722-.368.945-.785.106-.185.186-.386.24-.604.053-.217.082-.394.087-.53.005-.136.007-.36.007-.67v-.363c-.563 0-.99.04-1.28.117-.854.242-1.28.78-1.28 1.614zm6.108 4.684a.5.5 0 0 1 .087-.117 2.3 2.3 0 0 1 .7-.334c.367-.096.726-.15 1.075-.16a.867.867 0 0 1 .276.015c.437.04.7.112.786.22.04.057.058.144.058.26v.102c0 .34-.092.74-.276 1.2a2.82 2.82 0 0 1-.77 1.113c-.05.04-.093.058-.132.058a.13.13 0 0 1-.058-.014c-.06-.03-.073-.083-.044-.16.36-.844.538-1.43.538-1.76 0-.107-.02-.185-.058-.233-.097-.115-.368-.174-.815-.174-.164 0-.358.01-.58.03-.244.03-.467.058-.67.087-.06 0-.097-.01-.117-.03-.02-.02-.024-.038-.014-.058 0-.01.004-.024.014-.043z" fill-rule="nonzero"/></symbol><symbol viewBox="-1 -1 18 18" fill-rule="evenodd" clip-rule="evenodd" stroke-linejoin="round" stroke-miterlimit="1.414" id="iconamericanexpress"><path d="M10.923 10.96V9.083h1.492v.388h-1.047v.34h1.022v.384h-1.022v.373h1.047v.39h-1.492zm3.2-.99c.086.09.133.205.133.398 0 .403-.25.59-.702.59h-.87v-.4h.866c.085 0 .145-.012.183-.047a.164.164 0 0 0 .053-.12c0-.056-.024-.1-.055-.125-.033-.03-.08-.042-.158-.042-.418-.014-.942.013-.942-.58 0-.272.17-.56.64-.56h.896v.4h-.82c-.082 0-.135.004-.18.034-.05.03-.067.076-.067.135 0 .07.04.12.097.14.047.016.098.02.174.02l.242.008c.242.006.41.048.51.15zm-3.765.118c.1.037.18.103.22.157.062.092.072.177.073.343v.37h-.447v-.233c0-.113.01-.28-.073-.367-.065-.067-.165-.083-.328-.083h-.478v.684h-.45V9.083h1.033c.227 0 .392.01.538.09.14.084.23.2.23.415 0 .3-.2.45-.317.498zm-3.474.7l-.687-.763.687-.74v1.504zm-1.773-.22H4.013v-.372h.98v-.383h-.98v-.34h1.12l.49.546-.51.55zm2.797-.618H7.33v-.478h.582c.16 0 .273.066.273.23 0 .162-.106.248-.278.248zm2.18-.095c-.06.035-.132.038-.22.038h-.543v-.42h.55c.08 0 .16 0 .214.033.058.03.093.088.093.17 0 .08-.034.144-.092.18zm-1.422-.153c0 .52-.387.63-.778.63H7.33v.627h-.87l-.55-.62-.573.62h-1.77V9.083h1.798l.55.615.568-.616h1.43c.354 0 .752.1.752.618zm7.24 1.018c-.108.16-.32.24-.606.24h-.864v-.403h.86c.085 0 .144-.01.18-.046a.157.157 0 0 0 .053-.12c0-.056-.022-.1-.055-.125-.033-.03-.08-.042-.158-.042-.42-.014-.943.013-.943-.58 0-.272.172-.56.64-.56h.892v-.372h-.828c-.25 0-.43.06-.56.154V8.71h-1.223c-.196 0-.426.05-.534.154V8.71h-2.185v.154c-.173-.125-.467-.153-.602-.153H8.53v.154c-.136-.133-.442-.153-.63-.153H6.29l-.37.402-.345-.4h-2.41v2.616h2.364l.38-.407.36.408h1.457v-.614h.143c.193.003.422-.005.623-.092v.706h1.202v-.682h.058c.074 0 .08.003.08.077v.605h3.653c.232 0 .474-.06.61-.168v.168h1.157c.24 0 .476-.034.656-.12V16H0V8.1h.764l.172-.416h.386l.17.417h1.504v-.318l.135.32h.78l.135-.325V8.1H7.78l-.002-.683h.072c.05.002.066.007.066.09V8.1h1.932v-.16c.155.085.398.16.717.16h.812l.174-.416h.387l.17.417h1.566v-.395l.237.396h1.255V5.487h-1.242v.31l-.174-.31h-1.275v.31l-.16-.31h-1.72c-.29 0-.543.04-.747.153v-.154H8.66v.153c-.13-.117-.308-.154-.505-.154h-4.34l-.292.675-.3-.674H1.858v.31l-.15-.31H.54L0 6.73V0h15.906v9.483h-.815c-.08 0-.135.003-.18.034-.047.03-.065.076-.065.135 0 .07.04.12.097.14a.53.53 0 0 0 .173.02l.242.008c.244.006.408.048.507.15.018.015.03.03.042.047l.003.004c.06.086.09.186.09.348 0 .143-.03.26-.094.352zm-9.25-2.988H5.16V5.858h1.494v.39H5.607v.338h1.02v.384h-1.02v.375h1.047v.387zm2.82 0h-.457V5.858h.457v1.874zm-.716-1.37c0 .3-.2.454-.316.5a.513.513 0 0 1 .22.158c.064.093.075.177.075.344v.368h-.452v-.236c0-.113.01-.275-.072-.365-.065-.065-.165-.08-.326-.08h-.48v.682h-.447V5.858h1.03c.227 0 .395.006.54.09.14.083.226.206.226.415zm6.007 1.37h-.634l-.847-1.407v1.407h-.91l-.175-.418h-.927l-.17.418h-.522c-.217 0-.492-.048-.647-.207-.158-.16-.24-.375-.24-.716 0-.28.05-.533.242-.734.144-.15.37-.218.68-.218h.43v.4h-.422c-.163 0-.256.026-.344.112-.078.08-.13.23-.13.425 0 .2.04.346.123.44.07.075.194.097.312.097h.2l.63-1.474h.67l.757 1.773V5.86h.68l.787 1.305V5.858h.457v1.874zm-14.762 0l.8-1.874h.665l.76 1.775V5.858h.73l.585 1.27.538-1.27h.744v1.874H4.37l-.003-1.468-.648 1.468h-.394l-.65-1.47v1.47h-.91l-.17-.418H.663l-.173.418H.006zm1.43-.81l-.307-.746-.305.747h.61zm10.614 0l-.31-.746-.308.747h.617zm-3.875-.296c-.062.037-.134.038-.222.038H7.41v-.416h.55c.08 0 .16.004.213.034.058.027.094.085.094.166 0 .082-.034.148-.092.178z"/></symbol><symbol viewBox="-1 -1 18 18" fill-rule="evenodd" clip-rule="evenodd" stroke-linejoin="round" stroke-miterlimit="1.414" id="iconandroid"><path d="M14.77 6.16a.988.988 0 0 0-1.974.002v4.135a.987.987 0 1 0 1.976 0V6.16zM3.587 5.363l.002 6.408c0 .583.47 1.054 1.054 1.054h.717v2.188a.989.989 0 0 0 1.975 0v-2.188h1.332v2.188a.989.989 0 0 0 1.976-.003v-2.186h.72c.58 0 1.053-.472 1.053-1.055V5.36l-8.83.002zm6.44-1.956a.373.373 0 1 1 .371-.374.373.373 0 0 1-.372.373m-4.05 0a.372.372 0 1 1 .373-.371.373.373 0 0 1-.374.373m4.205-1.945l.688-1.26a.137.137 0 0 0-.054-.186.138.138 0 0 0-.185.055L9.93 1.344A4.74 4.74 0 0 0 7.995.938c-.69 0-1.347.145-1.93.404L5.37.074a.137.137 0 1 0-.24.131l.69 1.257c-1.355.7-2.27 2.03-2.27 3.558h8.896c0-1.528-.914-2.856-2.267-3.556M2.215 5.175a.988.988 0 0 0-.988.988v4.135a.988.988 0 1 0 1.976 0V6.162a.988.988 0 0 0-.988-.987" fill-rule="nonzero"/></symbol><symbol viewBox="-1 -1 18 18" fill-rule="evenodd" clip-rule="evenodd" stroke-linejoin="round" stroke-miterlimit="1.414" id="iconapple"><path d="M8.112 4.59c.54 0 1.544-.743 2.85-.743 2.25 0 3.135 1.6 3.135 1.6s-1.73.885-1.73 3.032c0 2.42 2.155 3.255 2.155 3.255s-1.507 4.242-3.542 4.242c-.935 0-1.662-.63-2.647-.63-1.004 0-2 .653-2.648.653-1.86 0-4.207-4.023-4.207-7.257 0-3.182 1.988-4.85 3.852-4.85 1.21 0 2.152.698 2.782.698zm.563-3.198C9.725.007 11.188 0 11.188 0s.217 1.303-.827 2.558c-1.114 1.34-2.382 1.12-2.382 1.12s-.238-1.054.697-2.286z"/></symbol><symbol viewBox="-1 -1 18 18" fill-rule="evenodd" clip-rule="evenodd" stroke-linejoin="round" stroke-miterlimit="1.414" id="iconappnet"><path d="M16 8A8 8 0 1 1 0 8a8 8 0 0 1 16 0zM8 3.442L3.057 10.89h1.01l1.125-1.767h5.616l1.124 1.766h1.01L8 3.44zm-2.16 4.88L8 5.064l2.16 3.256H5.84z"/></symbol><symbol viewBox="-1 -1 18 18" fill-rule="evenodd" clip-rule="evenodd" stroke-linejoin="round" stroke-miterlimit="1.414" id="iconasana"><path d="M12.52 8.435a3.48 3.48 0 1 0 0 6.962 3.48 3.48 0 0 0 0-6.963zm-9.04 0a3.48 3.48 0 1 0 0 6.96 3.48 3.48 0 0 0 0-6.96zm8-4.35a3.48 3.48 0 1 1-6.96 0 3.48 3.48 0 0 1 6.96 0z"/></symbol><symbol viewBox="-1 -1 18 18" fill-rule="evenodd" clip-rule="evenodd" stroke-linejoin="round" stroke-miterlimit="1.414" id="iconautomatic"><path d="M.825 4.83c0-.535.378-1.19.84-1.456L7.16.2c.462-.267 1.218-.267 1.68 0l5.495 3.174c.462.267.84.92.84 1.455v6.342c0 .534-.378 1.19-.84 1.455L8.84 15.8c-.462.267-1.218.267-1.68 0l-5.495-3.173c-.462-.266-.84-.92-.84-1.455V4.83zm9.463 6.583l-.458-.923H6.162l-.45.923h-2.19l3.6-7.36c.203-.405.518-.6.878-.6s.69.218.878.593l3.6 7.367h-2.19zm.66-.908L8 4.51v1.65l1.68 3.452H5.487L8 4.512v-.826c-.323.022-.503.195-.66.473l-3.43 6.998h1.644l-.502-.638.435-.908.517.638h3.984l.45.908h1.65l-1.14-.653zM8.983 8.75L8 6.717 7.017 8.75h1.966z"/></symbol><symbol viewBox="-1 -1 18 18" fill-rule="evenodd" clip-rule="evenodd" stroke-linejoin="round" stroke-miterlimit="1.414" id="iconbaidu"><path d="M2.88 8.432c1.74-.374 1.5-2.455 1.45-2.91-.085-.7-.91-1.925-2.028-1.827C.894 3.82.69 5.855.69 5.855c-.192.94.454 2.95 2.19 2.577m3.23-3.488c.96 0 1.735-1.106 1.735-2.473C7.845 1.105 7.07 0 6.11 0S4.37 1.104 4.37 2.47c0 1.368.78 2.474 1.74 2.474m4.138.163c1.285.168 2.108-1.203 2.273-2.242.17-1.037-.66-2.243-1.57-2.45-.91-.21-2.048 1.25-2.15 2.2-.126 1.166.164 2.327 1.448 2.492m5.09 1.745c0-.497-.413-1.995-1.944-1.995-1.535 0-1.738 1.414-1.738 2.412 0 .952.08 2.28 1.986 2.24 1.903-.042 1.695-2.158 1.695-2.658m-1.943 4.36s-1.987-1.536-3.146-3.197c-1.574-2.45-3.808-1.452-4.555-.208C4.95 9.054 3.79 9.842 3.626 10.05c-.167.206-2.4 1.412-1.904 3.614.496 2.2 2.237 2.16 2.237 2.16s1.282.124 2.77-.208c1.49-.332 2.773.08 2.773.08s3.477 1.167 4.428-1.077c.952-2.243-.536-3.407-.536-3.407" fill-rule="nonzero"/></symbol><symbol viewBox="-1 -1 18 18" fill-rule="evenodd" clip-rule="evenodd" stroke-linejoin="round" stroke-miterlimit="1.414" id="iconbandcamp"><path d="M0 12.5l4.958-9H16l-4.958 9H0z"/></symbol><symbol viewBox="-1 -1 18 18" fill-rule="evenodd" clip-rule="evenodd" stroke-linejoin="round" stroke-miterlimit="1.414" id="iconbasecamp"><path d="M8 1.333c-4.307 0-7.68 5.48-8 10.107 1.352 2.346 4.61 3.227 8 3.227 3.39 0 6.65-.88 8-3.227-.32-4.628-3.693-10.107-8-10.107zm6.875 9.005s-.952-2.057-1.918-3.257c-.968-1.2-2.15-2.506-2.848-2.506-.7 0-2.65 3.456-3.547 3.456-.895 0-1.36-1.567-2.462-1.567-1.1 0-2.85 3.778-2.85 3.778l-.12.642s.61 2.695 6.97 2.695c6.36 0 6.87-2.65 6.87-2.65l-.095-.59z"/></symbol><symbol viewBox="-1 -1 18 18" fill-rule="evenodd" clip-rule="evenodd" stroke-linejoin="round" stroke-miterlimit="1.414" id="iconbathasu"><path d="M13.967 14.832c-.22 0-.436-.058-.628-.17a1.251 1.251 0 0 1-.46-1.707 4.605 4.605 0 0 0-1.683-6.285 4.595 4.595 0 0 0-2.295-.614 1.251 1.251 0 0 1-1.085-1.878c.22-.383.635-.62 1.08-.622 1.248 0 2.474.328 3.55.95a7.055 7.055 0 0 1 3.308 4.313 7.056 7.056 0 0 1-.71 5.39c-.22.383-.635.622-1.078.622zm-7.64.873a7.13 7.13 0 0 1-6.16-3.553 1.247 1.247 0 0 1 .46-1.704c.58-.335 1.376-.117 1.707.457a4.617 4.617 0 0 0 3.99 2.3c.8 0 1.596-.213 2.295-.616a4.597 4.597 0 0 0 1.68-1.686c.11-.188.268-.345.46-.455.578-.336 1.376-.117 1.708.457.22.383.22.862-.003 1.248a7.093 7.093 0 0 1-6.139 3.55zm.496-11.073a3.757 3.757 0 0 0-.702 4.647 2.084 2.084 0 0 1-.915 2.924 3.756 3.756 0 0 0 4.375-1.716 2.087 2.087 0 0 1 2.993-.668 3.768 3.768 0 0 0-1.792-2.43A3.785 3.785 0 0 0 8.9 6.89a2.084 2.084 0 0 1-2.075-2.256zm-2.508 6.94c-.442 0-.856-.24-1.08-.626a7.105 7.105 0 0 1-.952-3.55c0-3.915 3.187-7.1 7.105-7.1a1.25 1.25 0 0 1-.004 2.5 4.605 4.605 0 0 0-4.6 4.6c0 .806.212 1.6.616 2.3a1.25 1.25 0 0 1-1.084 1.874z"/></symbol><symbol viewBox="-1 -1 18 18" fill-rule="evenodd" clip-rule="evenodd" stroke-linejoin="round" stroke-miterlimit="1.414" id="iconbebo"><path d="M13.836 7.725A6.072 6.072 0 0 0 10.64 4.54a5.786 5.786 0 0 0-2.31-.466L5.112 4.07a.736.736 0 0 1-.734-.733l-.002-2.03C4.378.576 3.788 0 3.035 0c-.74 0-1.342.603-1.342 1.343l.004 8.688c0 .816.157 1.594.468 2.315.313.72.746 1.36 1.287 1.903a6.135 6.135 0 0 0 1.902 1.285c.72.31 1.5.467 2.315.467h.664a5.82 5.82 0 0 0 2.316-.467 6.093 6.093 0 0 0 1.902-1.285 6.11 6.11 0 0 0 1.286-1.9c.31-.715.47-1.493.47-2.312 0-.817-.16-1.594-.472-2.31zm-2.214 2.31a3.265 3.265 0 0 1-3.291 3.281h-.655c-.45 0-.88-.086-1.28-.255a3.237 3.237 0 0 1-1.053-.705 3.295 3.295 0 0 1-.707-1.053c-.167-.4-.252-.83-.252-1.28v-1.89a1.371 1.371 0 0 1 1.374-1.377l2.57.003c.45 0 .88.084 1.282.25.4.17.753.406 1.05.704.3.3.54.653.71 1.048.167.402.252.83.252 1.274z"/></symbol><symbol viewBox="-1 -1 18 18" fill-rule="evenodd" clip-rule="evenodd" stroke-linejoin="round" stroke-miterlimit="1.414" id="iconbehance"><path d="M4.64 2.987c.47 0 .896.04 1.284.125.386.082.715.218.994.406.274.187.49.436.642.75.15.31.226.697.226 1.155 0 .495-.113.91-.338 1.24-.226.33-.56.602-1.004.812.606.174 1.054.48 1.352.916.3.44.445.965.445 1.58 0 .5-.095.93-.285 1.29a2.509 2.509 0 0 1-.78.893c-.325.23-.7.4-1.12.51-.413.11-.844.165-1.285.165H0v-9.84h4.64zm6.69 8.133c.293.286.717.43 1.266.43.394 0 .736-.1 1.022-.3.284-.197.456-.41.523-.63h1.725c-.277.857-.698 1.47-1.27 1.838-.568.37-1.26.555-2.065.555a4.09 4.09 0 0 1-1.52-.27 3.21 3.21 0 0 1-1.15-.766 3.511 3.511 0 0 1-.724-1.188 4.36 4.36 0 0 1-.256-1.52c0-.532.09-1.03.263-1.49.178-.462.423-.86.746-1.195.323-.335.707-.6 1.154-.794a3.72 3.72 0 0 1 1.486-.29c.603 0 1.13.117 1.584.353.45.233.82.55 1.11.945.292.394.498.846.628 1.353.127.506.172 1.034.136 1.587h-5.143c0 .563.19 1.097.485 1.383zm-6.85.033c.213 0 .416-.02.607-.062.194-.042.366-.11.51-.208.146-.096.266-.226.353-.393.087-.166.13-.38.13-.64 0-.506-.143-.866-.427-1.085-.285-.215-.664-.323-1.13-.323H2.167v2.71H4.48zm9.1-3.777c-.234-.258-.628-.397-1.108-.397-.313 0-.572.052-.78.16a1.573 1.573 0 0 0-.495.39c-.126.16-.212.326-.262.504-.05.173-.08.33-.09.47h3.185c-.047-.5-.217-.87-.45-1.128zm-9.22-.413c.384 0 .702-.09.953-.276.25-.182.37-.482.37-.895 0-.23-.04-.418-.12-.565a.9.9 0 0 0-.334-.342 1.357 1.357 0 0 0-.48-.173 2.875 2.875 0 0 0-.556-.05H2.167v2.3H4.36zm6.085-3.316h3.99v.972h-3.99v-.973z"/></symbol><symbol viewBox="-1 -1 18 18" fill-rule="evenodd" clip-rule="evenodd" stroke-linejoin="round" stroke-miterlimit="1.414" id="iconbigcartel"><path d="M8 8.712v-.67c0-.42.168-.838.586-1.005L13.78 3.77c.335-.168.503-.587.503-1.006V0L8 4.02 1.717 0v8.46c0 2.263 1.006 4.19 2.68 5.278L7.918 16l3.518-2.262c1.675-1.005 2.68-2.932 2.68-5.277V4.69L8 8.713z" fill-rule="nonzero"/></symbol><symbol viewBox="-1 -1 18 18" fill-rule="evenodd" clip-rule="evenodd" stroke-linejoin="round" stroke-miterlimit="1.414" id="iconbing"><path d="M2.404 0L5.6 1.124v11.25l4.502-2.598L7.895 8.74 6.503 5.274l7.093 2.492v3.623L5.602 16l-3.198-1.779z"/></symbol><symbol viewBox="-1 -1 18 18" fill-rule="evenodd" clip-rule="evenodd" stroke-linejoin="round" stroke-miterlimit="1.414" id="iconbitbucket"><path d="M8 0C4.187 0 1.055 1.02 1.055 2.315c0 .34.817 5.174 1.158 7.08.136.886 2.383 2.11 5.787 2.11s5.583-1.224 5.787-2.11c.34-1.906 1.158-6.74 1.158-7.08C14.877 1.02 11.813 0 8 0zm0 9.94a2.151 2.151 0 0 1-2.18-2.178c0-1.226.954-2.18 2.18-2.18 1.226 0 2.18.954 2.18 2.18C10.18 8.92 9.225 9.94 8 9.94zm0-6.944c-2.45 0-4.426-.41-4.426-.953 0-.545 1.975-.954 4.426-.954 2.45 0 4.426.408 4.426.953 0 .544-1.975.953-4.426.953z" fill-rule="nonzero"/><path d="M12.97 11.234c-.136 0-.204.068-.204.068S11.064 12.664 8 12.664s-4.766-1.362-4.766-1.362-.136-.068-.204-.068c-.136 0-.273.068-.273.272v.068c.273 1.43.477 2.452.477 2.588C3.438 15.182 5.48 16 7.932 16c2.45 0 4.494-.817 4.698-1.838 0-.136.204-1.158.476-2.588v-.068c.068-.136 0-.272-.136-.272z" fill-rule="nonzero"/><circle cx="8" cy="7.694" r="1.089"/></symbol></svg>